<svg xmlns="http://www.w3.org/2000/svg" width="920" height="820" viewBox="0 0 920 820" role="img" aria-labelledby="title desc">
  <title id="title">LoopRelay engineering usefulness</title>
  <desc id="desc">Baseline and LoopRelay matched-pair engineering outcomes and costs.</desc>
  <rect width="920" height="820" rx="12" fill="#fbfaf6"/>
  <text x="36" y="42" font-family="system-ui,sans-serif" font-size="22" font-weight="700" fill="#171816">LoopRelay engineering usefulness</text>
  <text x="36" y="70" font-family="system-ui,sans-serif" font-size="13" fill="#64665f">10 matched pairs · 3 task types · causal claim: false</text>
  <rect x="704" y="25" width="180" height="30" rx="15" fill="#dadece"/>
  <text x="794" y="45" text-anchor="middle" font-family="system-ui,sans-serif" font-size="11" font-weight="700" fill="#154f48">DIRECTIONAL EVIDENCE</text>
  <rect x="36" y="92" width="12" height="12" rx="2" fill="#8a887f"/><text x="56" y="103" font-family="system-ui,sans-serif" font-size="12" fill="#64665f">Baseline</text>
  <rect x="126" y="92" width="12" height="12" rx="2" fill="#1f6f64"/><text x="146" y="103" font-family="system-ui,sans-serif" font-size="12" fill="#64665f">LoopRelay</text>
  <text x="36" y="162" font-family="system-ui,sans-serif" font-size="13" font-weight="600" fill="#171816">Success rate</text>
  <rect x="170" y="150" width="213.33333333333331" height="18" rx="3" fill="#8a887f"/>
  <text x="393.3333333333333" y="164" font-family="ui-monospace,monospace" font-size="11" fill="#171816">40%</text>
  <rect x="170" y="175" width="480" height="18" rx="3" fill="#1f6f64"/>
  <text x="660" y="189" font-family="ui-monospace,monospace" font-size="11" fill="#171816">90%</text>
  <text x="36" y="232" font-family="system-ui,sans-serif" font-size="13" font-weight="600" fill="#171816">Actionability</text>
  <rect x="170" y="220" width="320" height="18" rx="3" fill="#8a887f"/>
  <text x="500" y="234" font-family="ui-monospace,monospace" font-size="11" fill="#171816">60%</text>
  <rect x="170" y="245" width="480" height="18" rx="3" fill="#1f6f64"/>
  <text x="660" y="259" font-family="ui-monospace,monospace" font-size="11" fill="#171816">90%</text>
  <text x="36" y="302" font-family="system-ui,sans-serif" font-size="13" font-weight="600" fill="#171816">Friction-free</text>
  <rect x="170" y="290" width="420" height="18" rx="3" fill="#8a887f"/>
  <text x="600" y="304" font-family="ui-monospace,monospace" font-size="11" fill="#171816">70%</text>
  <rect x="170" y="315" width="480" height="18" rx="3" fill="#1f6f64"/>
  <text x="660" y="329" font-family="ui-monospace,monospace" font-size="11" fill="#171816">80%</text>
  <text x="36" y="372" font-family="system-ui,sans-serif" font-size="13" font-weight="600" fill="#171816">Elapsed time</text>
  <rect x="170" y="360" width="480" height="18" rx="3" fill="#8a887f"/>
  <text x="660" y="374" font-family="ui-monospace,monospace" font-size="11" fill="#171816">28s</text>
  <rect x="170" y="385" width="451.79611456508053" height="18" rx="3" fill="#1f6f64"/>
  <text x="631.7961145650805" y="399" font-family="ui-monospace,monospace" font-size="11" fill="#171816">26.3s</text>
  <text x="36" y="442" font-family="system-ui,sans-serif" font-size="13" font-weight="600" fill="#171816">Tool calls</text>
  <rect x="170" y="430" width="480" height="18" rx="3" fill="#8a887f"/>
  <text x="660" y="444" font-family="ui-monospace,monospace" font-size="11" fill="#171816">3.3</text>
  <rect x="170" y="455" width="465.4545454545455" height="18" rx="3" fill="#1f6f64"/>
  <text x="645.4545454545455" y="469" font-family="ui-monospace,monospace" font-size="11" fill="#171816">3.2</text>
  <text x="36" y="512" font-family="system-ui,sans-serif" font-size="13" font-weight="600" fill="#171816">Input tokens</text>
  <rect x="170" y="500" width="364.8366175944966" height="18" rx="3" fill="#8a887f"/>
  <text x="544.8366175944966" y="514" font-family="ui-monospace,monospace" font-size="11" fill="#171816">83.6k</text>
  <rect x="170" y="525" width="480" height="18" rx="3" fill="#1f6f64"/>
  <text x="660" y="539" font-family="ui-monospace,monospace" font-size="11" fill="#171816">110k</text>
  <line x1="36" y1="570" x2="884" y2="570" stroke="#d8d4ca"/>
  <text x="36" y="598" font-family="system-ui,sans-serif" font-size="14" font-weight="700" fill="#171816">Success rate by task type</text>
  <text x="36" y="638" font-family="system-ui,sans-serif" font-size="12" font-weight="600" fill="#171816">Failure prevention</text>
  <rect x="250" y="625" width="0" height="16" rx="3" fill="#8a887f"/>
  <text x="470" y="638" font-family="ui-monospace,monospace" font-size="11" fill="#171816">0%</text>
  <rect x="530" y="625" width="210" height="16" rx="3" fill="#1f6f64"/>
  <text x="750" y="638" font-family="ui-monospace,monospace" font-size="11" fill="#171816">100%</text>
  <text x="884" y="638" text-anchor="end" font-family="ui-monospace,monospace" font-size="11" font-weight="700" fill="#154f48">+100pp</text>
  <text x="36" y="684" font-family="system-ui,sans-serif" font-size="12" font-weight="600" fill="#171816">Implementation continuation</text>
  <rect x="250" y="671" width="210" height="16" rx="3" fill="#8a887f"/>
  <text x="470" y="684" font-family="ui-monospace,monospace" font-size="11" fill="#171816">100%</text>
  <rect x="530" y="671" width="140.00007000000002" height="16" rx="3" fill="#1f6f64"/>
  <text x="750" y="684" font-family="ui-monospace,monospace" font-size="11" fill="#171816">66.7%</text>
  <text x="884" y="684" text-anchor="end" font-family="ui-monospace,monospace" font-size="11" font-weight="700" fill="#b42318">-33.3pp</text>
  <text x="36" y="730" font-family="system-ui,sans-serif" font-size="12" font-weight="600" fill="#171816">Session recovery</text>
  <rect x="250" y="717" width="52.5" height="16" rx="3" fill="#8a887f"/>
  <text x="470" y="730" font-family="ui-monospace,monospace" font-size="11" fill="#171816">25%</text>
  <rect x="530" y="717" width="210" height="16" rx="3" fill="#1f6f64"/>
  <text x="750" y="730" font-family="ui-monospace,monospace" font-size="11" fill="#171816">100%</text>
  <text x="884" y="730" text-anchor="end" font-family="ui-monospace,monospace" font-size="11" font-weight="700" fill="#154f48">+75pp</text>
  <line x1="36" y1="770" x2="884" y2="770" stroke="#d8d4ca"/>
  <text x="36" y="795" font-family="system-ui,sans-serif" font-size="12" fill="#64665f">Higher is better for success, actionability, and friction-free. Lower is better for time, calls, and tokens.</text>
  <text x="884" y="795" text-anchor="end" font-family="system-ui,sans-serif" font-size="12" fill="#64665f">minimum 10 pairs / 3 task types</text>
</svg>
